<svg xmlns="http://www.w3.org/2000/svg" xmlns:xlink="http://www.w3.org/1999/xlink" version="1.1" x="0px" y="0px" viewBox="0 0 100 125" enable-background="new 0 0 100 100" xml:space="preserve"><g><path d="M50.287,18.167c-14.186-0.141-27.242,9.276-31.085,23.601c-4.578,16.975,5.539,34.429,22.551,38.969   c17.013,4.567,34.505-5.527,39.055-22.502c4.55-16.974-5.539-34.428-22.551-38.968C55.601,18.562,52.915,18.195,50.287,18.167   L50.287,18.167z M50.259,19.746c2.516,0.028,5.059,0.367,7.603,1.043c16.164,4.314,25.744,20.922,21.421,37.051   c-4.324,16.129-20.969,25.688-37.134,21.373c-16.165-4.342-25.773-20.894-21.449-37.05C24.373,28.543,36.779,19.605,50.259,19.746   L50.259,19.746z M44.494,35.311c-0.565,0-1.13,0.197-1.667,0.451c-0.028,0-0.057-0.028-0.084,0c-0.028,0-0.057,0-0.085,0.028   c-0.028,0-0.085,0.028-0.142,0.056c-0.028,0-0.056,0-0.084,0c-0.113,0.084-0.226,0.169-0.283,0.282   c-0.028,0.028-0.028,0.056-0.057,0.084c-1.045,0.79-1.724,1.974-1.752,3.214l0.028,19.118l-0.028,2.002v0.028   c0.028,1.41,0.763,2.791,2.091,3.553c1.271,0.762,2.826,0.705,4.041,0.057L64.841,53.61c0.142-0.085,0.255-0.197,0.34-0.338   c0-0.028,0-0.028,0-0.028c1.017-0.762,1.78-1.89,1.78-3.243c0-1.522-0.848-2.848-2.092-3.581L46.5,35.846c0,0,0,0-0.028,0   C45.879,35.508,45.201,35.311,44.494,35.311L44.494,35.311z M44.494,36.89c0.424,0,0.848,0.141,1.215,0.338l18.369,10.574   c0.763,0.423,1.271,1.241,1.271,2.199c0,0.959-0.509,1.776-1.3,2.228c-0.028,0-0.085,0.028-0.113,0.057L45.709,62.803h-0.028   c-0.735,0.395-1.667,0.423-2.459-0.028c-0.819-0.479-1.271-1.325-1.271-2.199v-0.028l0.028-2.002l-0.028-19.118   c0-0.874,0.452-1.692,1.271-2.171C43.618,37.031,44.07,36.89,44.494,36.89L44.494,36.89z"/></g><text x="0" y="115" fill="#000000" font-size="5px" font-weight="bold" font-family="'Helvetica Neue', Helvetica, Arial-Unicode, Arial, Sans-serif">Created by artworkbean</text><text x="0" y="120" fill="#000000" font-size="5px" font-weight="bold" font-family="'Helvetica Neue', Helvetica, Arial-Unicode, Arial, Sans-serif">from the Noun Project</text></svg>